<svg width="70" height="637" viewBox="0 0 70 637" fill="none" xmlns="http://www.w3.org/2000/svg">
<g clip-path="url(#clip0)" filter="url(#filter0_dd)">
<path d="M-10.6199 77.94L-13.3399 56.89C-13.7399 53.79 -18.2499 53.58 -18.3399 56.89C-20.4866 138.143 -21.4199 219.413 -21.1399 300.7C-21.0599 323.507 -20.8832 346.317 -20.6099 369.13C-20.6099 372.41 -15.9399 372.27 -15.6099 369.13C-7.43989 290.22 -6.4299 210.81 -7.0299 131.54C-7.19657 109.353 -7.44991 87.16 -7.78991 64.96C-7.78991 61.72 -12.6099 61.76 -12.7899 64.96C-14.7221 100.496 -14.2878 136.121 -11.4899 171.6C-11.4751 172.196 -11.2486 172.767 -10.851 173.211C-10.4535 173.656 -9.91073 173.944 -9.32003 174.025C-8.72933 174.105 -8.12923 173.973 -7.62716 173.651C-7.1251 173.33 -6.75385 172.84 -6.57989 172.27C9.85011 129.94 -1.64989 83.93 1.64011 39.99C2.45691 27.3836 5.03182 14.9534 9.2901 3.05997L4.37009 2.38997L-2.41989 111.07C-2.61989 114.32 2.27011 114.23 2.58011 111.07C3.63635 100.168 3.08376 89.1708 0.940098 78.43C0.390099 75.63 -3.98991 76.32 -3.96991 79.09C-3.74728 115.778 -1.3028 152.418 3.3501 188.81C3.7001 191.55 7.2701 192.27 8.26011 189.48L15.0301 170.48L10.1201 169.81C8.72009 192.51 8.13345 215.23 8.36011 237.97C8.37493 238.566 8.60139 239.137 8.99897 239.581C9.39655 240.026 9.93927 240.314 10.53 240.395C11.1207 240.475 11.7208 240.343 12.2228 240.021C12.7249 239.7 13.0962 239.21 13.2701 238.64C18.6931 222.066 21.0912 204.652 20.3501 187.23C20.3501 186.567 20.0867 185.931 19.6179 185.462C19.149 184.993 18.5131 184.73 17.8501 184.73C17.1871 184.73 16.5512 184.993 16.0823 185.462C15.6135 185.931 15.3501 186.567 15.3501 187.23C12.1834 231.69 10.6868 276.227 10.8601 320.84H15.8601L15.6801 307.23C15.6801 304.51 11.3401 303.72 10.7701 306.57C8.58144 317.578 7.08848 328.714 6.30011 339.91H11.3001L-6.40991 203.6L-11.4699 164.75C-11.8699 161.64 -16.3199 161.44 -16.4699 164.75C-18.1099 200.923 -18.1732 237.113 -16.6599 273.32H-11.6599C-12.6933 253.522 -16.7781 234.001 -23.7699 215.45C-24.5899 213.3 -27.9599 212.87 -28.5899 215.45C-34.8199 240.63 -34.8199 266.7 -32.7799 292.45C-30.6899 318.93 -27.0199 345.26 -24.9599 371.74C-20.7499 425.86 -20.2199 480.18 -20.9599 534.43C-21.3899 564.88 -22.2399 595.31 -23.0999 625.75C-23.1899 629.01 -18.3699 628.91 -18.0999 625.75C-11.5599 549.71 -7.32991 473.52 -5.40991 397.18C-4.88324 375.74 -4.53322 354.293 -4.35989 332.84C-4.35989 330.1 -8.74989 329.33 -9.26989 332.17C-11.0727 341.901 -11.827 351.798 -11.5199 361.69C-11.4299 364.64 -7.60989 364.92 -6.60989 362.35L0.270115 344.69C1.16011 342.4 -1.6599 341.1 -3.3999 341.86C-16.3399 347.48 -23.9999 360.86 -26.2799 374.29C-29.2799 392.02 -23.5699 409.69 -18.8999 426.59C-18.1899 429.15 -14.8999 428.78 -14.0699 426.59L9.45011 366.35L4.53009 365.69L4.71009 430.76C4.71009 433.53 8.96009 434.22 9.62009 431.42C16.211 403.6 21.2388 375.432 24.6801 347.05H19.6801C18.5895 369.123 19.188 391.248 21.4701 413.23C21.4849 413.826 21.7114 414.397 22.109 414.841C22.5065 415.286 23.0493 415.574 23.64 415.655C24.2307 415.735 24.8308 415.603 25.3328 415.281C25.8349 414.96 26.2061 414.47 26.3801 413.9C33.7406 396.091 39.448 377.644 43.4301 358.79C44.0901 355.66 39.5601 354.37 38.6101 357.46L35.6101 367.09H40.4301L6.2201 251.09C5.3801 248.21 1.64009 249.09 1.31009 251.76L-13.9999 378.48C-14.3399 381.25 -9.4899 381.93 -9.0899 379.14L-0.209896 316.84L-4.7799 317.44C14.8101 362.44 24.0401 411.02 30.7901 459.37C32.7201 473.15 34.4401 486.96 36.1601 500.77C36.4901 503.37 40.3201 504.41 41.0801 501.44C51.8883 459.079 59.2919 415.921 63.2201 372.38C64.3401 359.953 65.1734 347.503 65.7201 335.03C65.8701 331.73 61.1301 331.95 60.7201 335.03L43.9601 460.23L39.1901 495.81C38.8201 498.57 43.7101 499.26 44.1001 496.47C47.4901 472.449 47.4901 448.071 44.1001 424.05C43.7501 421.53 39.8401 421.8 39.2801 424.05C29.5134 463.383 21.3234 503.05 14.7101 543.05L19.6201 543.71C18.6201 497.78 17.6201 451.77 12.4201 406.08C12.1701 403.85 9.03011 402.39 7.76011 404.82C-4.4417 428.32 -10.9112 454.372 -11.1199 480.85C-11.1199 483.58 -6.6299 484.37 -6.2099 481.52L-0.509914 442.86C-0.0499153 439.77 -4.56989 438.32 -5.32989 441.54L-12.7399 472.98C-13.4799 476.11 -8.65989 477.44 -7.91989 474.31L-0.509914 442.86L-5.32989 441.54L-11.0299 480.23L-6.1199 480.89C-5.94256 455.239 0.311707 429.996 12.1301 407.23L7.4701 405.97C12.7201 451.66 13.7101 497.67 14.6701 543.6C14.6701 546.3 19.1001 547.15 19.5801 544.27C26.1801 504.27 34.3701 464.603 44.1501 425.27H39.3301C42.5635 448.412 42.5467 471.893 39.2801 495.03L44.1901 495.7L60.9501 370.55L65.7201 334.97H60.7201C58.809 378.42 53.4082 421.646 44.5701 464.23C42.0701 476.23 39.2968 488.19 36.2501 500.11L41.1601 500.77C35.0101 451.41 28.8101 401.66 14.0301 353.99C9.91867 340.708 5.08141 327.662 -0.459896 314.91C-1.2799 313.03 -4.7299 313.44 -5.0299 315.51L-13.9099 377.81L-8.9999 378.48L6.3501 251.8L1.4401 252.46L35.6501 368.46C35.8078 368.976 36.1271 369.428 36.561 369.749C36.9948 370.07 37.5203 370.244 38.0601 370.244C38.5999 370.244 39.1254 370.07 39.5592 369.749C39.9931 369.428 40.3124 368.976 40.4701 368.46L43.4701 358.83L38.6501 357.5C34.668 376.354 28.9606 394.801 21.6001 412.61L26.5101 413.27C24.2111 391.266 23.5993 369.118 24.6801 347.02C24.8401 343.73 20.0601 343.91 19.6801 347.02C16.2681 374.942 11.3004 402.652 4.80011 430.02L9.71009 430.69L9.53009 365.62C9.53009 362.62 5.61009 362.44 4.62009 364.96L-18.9399 425.23H-14.1199C-18.4599 409.54 -24.0699 392.95 -21.6499 376.46C-19.7999 363.8 -13.0599 351.4 -0.929897 346.14L-4.59991 343.32L-11.4799 360.98L-6.56991 361.65C-6.88696 352.206 -6.19301 342.756 -4.4999 333.46L-9.40991 332.8C-10.0099 409.087 -12.9132 485.337 -18.1199 561.55C-19.5866 582.95 -21.2532 604.337 -23.1199 625.71H-18.1199C-16.6099 571.84 -15.1199 517.95 -15.8899 464.06C-16.2899 437.15 -17.2499 410.24 -19.0899 383.38C-20.8899 356.93 -24.0899 330.67 -26.6999 304.29C-29.5599 275.15 -30.8399 245.44 -23.6999 216.78H-28.5199C-21.652 234.899 -17.6278 253.971 -16.5899 273.32C-16.4199 276.52 -11.4499 276.55 -11.5899 273.32C-13.1099 237.153 -13.0466 200.963 -11.3999 164.75H-16.3999L1.2501 301.03L6.30011 339.88C6.71011 343.01 11.0701 343.17 11.3001 339.88C12.0591 329.134 13.4919 318.446 15.5901 307.88L10.6801 307.23L10.8601 320.83C10.8601 324.05 15.8601 324.06 15.8601 320.83C15.6801 276.263 17.1768 231.727 20.3501 187.22H15.3501C16.0839 204.199 13.7464 221.171 8.45011 237.32L13.3601 237.98C13.1268 215.247 13.7134 192.527 15.1201 169.82C15.3001 166.82 11.1201 166.64 10.2101 169.16L3.4401 188.16L8.3501 188.82C3.6972 152.428 1.25272 115.788 1.03009 79.1L-3.87991 79.77C-1.8607 90.0786 -1.36874 100.628 -2.41989 111.08H2.58011L9.37009 2.39997C9.56009 -0.600034 5.37009 -0.750037 4.46009 1.73996C-11.2499 44.31 0.400085 90.23 -3.28991 134.23C-4.21784 146.809 -6.94909 159.189 -11.3999 170.99L-6.48989 171.65C-9.28782 136.171 -9.72213 100.546 -7.78991 65.01H-12.7899C-11.7399 144.29 -10.6899 223.67 -15.2999 302.87C-16.5932 325.01 -18.3632 347.113 -20.6099 369.18H-15.6099C-16.5766 287.9 -16.3299 206.623 -14.8699 125.35C-14.4566 102.55 -13.9466 79.7466 -13.3399 56.94H-18.3399L-15.6199 77.99C-15.2099 81.14 -10.2099 81.18 -10.6199 77.99V77.94Z" fill="#231F20"/>
</g>
<defs>
<filter id="filter0_dd" x="-38" y="0" width="107.72" height="636.12" filterUnits="userSpaceOnUse" color-interpolation-filters="sRGB">
<feFlood flood-opacity="0" result="BackgroundImageFix"/>
<feColorMatrix in="SourceAlpha" type="matrix" values="0 0 0 0 0 0 0 0 0 0 0 0 0 0 0 0 0 0 127 0" result="hardAlpha"/>
<feOffset dy="4"/>
<feGaussianBlur stdDeviation="2"/>
<feComposite in2="hardAlpha" operator="out"/>
<feColorMatrix type="matrix" values="0 0 0 0 0 0 0 0 0 0 0 0 0 0 0 0 0 0 0.25 0"/>
<feBlend mode="normal" in2="BackgroundImageFix" result="effect1_dropShadow"/>
<feColorMatrix in="SourceAlpha" type="matrix" values="0 0 0 0 0 0 0 0 0 0 0 0 0 0 0 0 0 0 127 0" result="hardAlpha"/>
<feOffset dy="4"/>
<feGaussianBlur stdDeviation="2"/>
<feComposite in2="hardAlpha" operator="out"/>
<feColorMatrix type="matrix" values="0 0 0 0 0 0 0 0 0 0 0 0 0 0 0 0 0 0 0.25 0"/>
<feBlend mode="normal" in2="effect1_dropShadow" result="effect2_dropShadow"/>
<feBlend mode="normal" in="SourceGraphic" in2="effect2_dropShadow" result="shape"/>
</filter>
<clipPath id="clip0">
<rect width="99.72" height="628.12" fill="white" transform="translate(-34)"/>
</clipPath>
</defs>
</svg>
